<?xml version="1.0" encoding="utf-8"?>
<!-- Generator: Adobe Illustrator 18.1.1, SVG Export Plug-In . SVG Version: 6.00 Build 0)  -->
<!DOCTYPE svg PUBLIC "-//W3C//DTD SVG 1.1//EN" "http://www.w3.org/Graphics/SVG/1.1/DTD/svg11.dtd">
<svg version="1.1" id="Layer_1" xmlns="http://www.w3.org/2000/svg" xmlns:xlink="http://www.w3.org/1999/xlink" x="0px" y="0px"
	 viewBox="0 0 50 50" enable-background="new 0 0 50 50" xml:space="preserve">
<path fill-rule="evenodd" clip-rule="evenodd" fill="#ffffff" d="M-3.1,25"/>
<g>
	<g>
		<path fill-rule="evenodd" clip-rule="evenodd" fill="#ffffff" d="M25,0C11.2,0,0,11.2,0,25c0,13.8,11.2,25,25,25
			c13.8,0,25-10.4,25-25C50,11.2,38.8,0,25,0z M25,4.7c10.6,0,19.3,8.2,20.2,18.5h-7.9c-0.5,0-0.9,0.2-1.2,0.5
			c-0.4,0.4-0.5,0.8-0.5,1.2l0,0.1c0,0,0,0.1,0,0.1v6.5c0,0.3-0.1,0.6-0.4,0.9c-0.2,0.2-0.6,0.3-0.9,0.3c-0.3,0-0.6-0.1-0.9-0.3
			c-0.3-0.2-0.4-0.5-0.4-0.9v-6.5c0-0.5-0.2-0.9-0.5-1.2c-0.4-0.3-0.8-0.5-1.3-0.5c-0.5,0-0.9,0.2-1.2,0.5c-0.4,0.3-0.5,0.7-0.5,1.1
			v6.7c0,0.4-0.2,0.7-0.4,0.9c-0.3,0.2-0.5,0.3-0.8,0.3c-0.3,0-0.6-0.1-0.9-0.3c-0.2-0.2-0.4-0.5-0.4-0.9c0-4.5,0-8.9,0-13.4
			c0-0.6-0.1-1.2-0.4-1.8c-0.3-0.6-0.6-1.1-1-1.5c-0.4-0.4-1-0.8-1.5-1c-0.6-0.3-1.2-0.4-1.9-0.4c-0.5,0-1.1,0.1-1.6,0.3
			c-0.5,0.2-1,0.4-1.4,0.8c-0.9-0.7-1.9-1.1-3.1-1.1c-0.6,0-1.3,0.1-1.8,0.4c-0.6,0.2-1.1,0.6-1.6,1c-0.4,0.4-0.8,0.9-1.1,1.5
			c-0.3,0.6-0.4,1.2-0.4,1.8v5H4.8C5.6,12.9,14.4,4.7,25,4.7z M25,45.2c-10.6,0-19.3-8.1-20.2-18.4h7.9c0.5,0,0.9-0.2,1.2-0.5
			c0.4-0.4,0.5-0.8,0.5-1.2l0-0.1c0,0,0-0.1,0-0.1v-6.5c0-0.3,0.1-0.6,0.4-0.9c0.2-0.2,0.6-0.4,0.9-0.4c0.3,0,0.6,0.1,0.9,0.3
			c0.3,0.2,0.4,0.5,0.4,0.9v6.5c0,0.5,0.2,0.9,0.5,1.2c0.4,0.3,0.8,0.5,1.3,0.5c0.5,0,0.9-0.2,1.2-0.5c0.4-0.3,0.5-0.7,0.5-1.1v-6.7
			c0-0.4,0.2-0.7,0.4-0.9c0.3-0.2,0.5-0.3,0.8-0.3c0.3,0,0.6,0.1,0.9,0.4c0.2,0.2,0.4,0.5,0.4,0.9c0,4.5,0,8.9,0,13.4
			c0,0.6,0.1,1.2,0.4,1.8c0.3,0.6,0.6,1.1,1,1.5c0.4,0.4,1,0.8,1.5,1c0.6,0.3,1.2,0.4,1.9,0.4c0.5,0,1.1-0.1,1.6-0.3
			c0.5-0.2,1-0.4,1.4-0.8c0.9,0.7,1.9,1.1,3.1,1.1c0.6,0,1.3-0.1,1.8-0.4c0.6-0.2,1.1-0.6,1.6-1c0.4-0.4,0.8-0.9,1.1-1.5
			c0.3-0.6,0.4-1.2,0.4-1.8v-5l6.1,0C44.3,37.1,35.6,45.2,25,45.2z"/>
	</g>
</g>
</svg>
